<?xml version="1.0" standalone="no"?>
<!DOCTYPE svg PUBLIC "-//W3C//DTD SVG 20010904//EN"
 "http://www.w3.org/TR/2001/REC-SVG-20010904/DTD/svg10.dtd">
<svg version="1.0" xmlns="http://www.w3.org/2000/svg"
 width="1789.338334pt" height="868.166284pt" viewBox="0 0 1789.338334 868.166284"
 preserveAspectRatio="xMidYMid meet">
<metadata>
Created by potrace 1.12, written by Peter Selinger 2001-2015
</metadata>
<g transform="translate(-105.361467,1434.045895) scale(0.100000,-0.100000)"
fill="#000000" stroke="none">
<path d="M2411 14309 c-38 -37 -59 -105 -71 -226 -12 -133 9 -259 56 -331 9
-13 14 -26 11 -28 -2 -2 -30 5 -63 16 -137 48 -306 68 -429 51 -248 -35 -396
-218 -383 -474 6 -115 33 -188 94 -256 167 -186 538 -165 635 35 29 62 30 161
1 226 -44 101 -161 188 -252 188 -32 0 -48 -7 -75 -32 -65 -60 -55 -157 19
-192 21 -10 42 -28 48 -41 23 -50 -20 -145 -66 -145 -34 0 -160 65 -184 94
-33 43 -45 92 -40 171 7 114 63 190 178 247 38 19 61 23 155 22 98 0 120 -4
205 -33 112 -40 271 -119 465 -232 241 -141 455 -259 534 -294 l43 -19 -89
-22 c-120 -29 -192 -65 -261 -129 -65 -60 -117 -144 -107 -174 9 -28 27 -32
151 -32 203 0 417 70 591 194 l41 29 64 -21 c111 -36 231 -61 298 -61 171 0
339 82 408 199 38 64 39 165 2 231 -50 89 -164 134 -239 96 -36 -19 -91 -90
-91 -117 0 -32 44 -52 96 -44 63 9 94 -12 94 -62 0 -49 -33 -115 -69 -136 -47
-28 -170 -42 -243 -27 -119 23 -559 190 -600 227 -14 12 -18 32 -18 83 0 94
-23 217 -64 339 -50 147 -105 235 -168 267 -39 20 -82 4 -105 -40 -41 -77 2
-309 84 -453 23 -42 43 -78 43 -80 0 -2 -24 12 -52 31 -103 66 -294 183 -370
227 -55 31 -76 48 -72 59 45 122 45 338 0 498 -30 107 -44 137 -81 175 -39 38
-84 37 -124 -4z"/>
<path d="M8910 13511 c-184 -59 -333 -261 -347 -472 -6 -87 10 -151 56 -220
80 -118 256 -151 369 -69 l40 29 6 -35 c12 -62 32 -39 70 82 21 64 40 123 43
130 3 9 -2 14 -13 14 -13 0 -29 -19 -48 -56 -35 -67 -104 -140 -151 -160 -45
-19 -119 -18 -160 2 -102 48 -128 214 -64 414 69 216 168 320 303 320 104 0
166 -67 166 -178 0 -44 3 -52 19 -52 16 0 22 14 35 88 10 48 20 99 23 115 9
44 -19 33 -40 -15 l-17 -43 -19 31 c-24 40 -65 69 -116 83 -54 15 -90 13 -155
-8z"/>
<path d="M9446 13510 c-85 -17 -109 -37 -54 -42 30 -3 33 -6 31 -33 -2 -28
-40 -154 -134 -451 -21 -67 -41 -147 -45 -177 -6 -51 -4 -58 19 -81 55 -55
133 -13 191 102 16 30 16 32 -2 32 -11 0 -26 -16 -40 -45 -35 -73 -102 -100
-102 -41 0 14 20 90 44 168 24 79 51 166 59 193 8 28 38 126 66 219 29 92 51
169 49 170 -2 1 -39 -6 -82 -14z"/>
<path d="M10298 13525 c-3 -3 -36 -11 -73 -18 -71 -13 -102 -37 -46 -37 16 0
32 -4 35 -9 6 -8 -28 -126 -119 -416 -58 -187 -68 -239 -51 -279 16 -38 59
-66 103 -66 44 0 129 45 176 93 23 24 58 75 77 113 29 56 36 81 38 145 5 89
-11 130 -59 155 -45 23 -88 11 -137 -38 -23 -22 -42 -38 -42 -34 0 7 56 191
100 328 10 32 15 60 11 63 -5 2 -10 2 -13 0z m56 -361 c49 -48 -25 -282 -119
-380 -34 -36 -48 -44 -79 -44 -58 0 -64 27 -32 139 59 209 170 345 230 285z"/>
<path d="M11315 13521 c-11 -5 -44 -12 -72 -16 -57 -7 -74 -31 -25 -37 35 -4
34 -21 -13 -171 l-37 -116 -28 21 c-36 26 -79 19 -145 -24 -96 -63 -173 -203
-182 -328 -4 -57 -2 -70 19 -100 44 -65 101 -65 172 0 24 22 46 40 50 40 3 0
6 -13 6 -28 0 -32 27 -62 54 -62 30 0 73 28 110 72 20 23 36 45 36 50 0 19
-27 5 -62 -33 -21 -22 -43 -39 -50 -36 -29 10 -7 98 151 602 59 187 59 183 16
166z m-183 -358 c10 -9 18 -25 18 -36 0 -36 -71 -232 -101 -279 -64 -99 -138
-137 -160 -81 -30 79 80 342 163 393 40 24 56 25 80 3z"/>
<path d="M14738 13513 c-69 -3 -88 -7 -88 -18 0 -10 11 -15 33 -15 18 0 42 -6
53 -14 22 -16 20 -23 -51 -256 -19 -63 -51 -169 -71 -235 -61 -205 -75 -225
-160 -225 -24 0 -34 -5 -34 -15 0 -22 439 -22 523 0 201 52 337 228 337 435 0
183 -92 303 -258 339 -51 11 -88 11 -284 4z m329 -69 c119 -96 135 -292 38
-484 -71 -140 -156 -200 -294 -207 -100 -5 -126 8 -125 62 0 22 33 146 73 275
40 129 82 264 92 300 10 36 21 71 24 79 4 10 23 12 79 9 65 -3 79 -7 113 -34z"/>
<path d="M17446 13504 c-45 -45 17 -114 70 -79 26 17 30 44 14 76 -13 23 -62
26 -84 3z"/>
<path d="M12136 13495 c-4 -12 3 -15 33 -15 76 0 77 -24 7 -251 -24 -79 -63
-207 -86 -284 -45 -150 -74 -195 -125 -195 -16 0 -25 -6 -25 -15 0 -13 24 -15
160 -15 129 0 160 3 160 14 0 8 -16 16 -40 20 -64 10 -65 24 -17 192 l42 149
105 6 c136 8 209 29 262 77 48 43 68 85 68 141 0 83 -42 139 -127 171 -46 17
-78 20 -232 20 -150 0 -180 -2 -185 -15z m395 -54 c50 -60 47 -149 -6 -221
-41 -55 -76 -72 -171 -79 -47 -4 -87 -5 -88 -3 -6 5 87 310 102 336 2 4 34 6
70 4 59 -4 68 -7 93 -37z"/>
<path d="M17134 13290 l-27 -90 -44 0 c-32 0 -43 -4 -43 -15 0 -10 11 -15 35
-15 43 0 44 -10 10 -111 -42 -122 -75 -246 -75 -282 0 -39 31 -77 63 -77 50 0
111 60 161 158 16 30 16 32 -2 32 -11 0 -25 -13 -34 -34 -40 -82 -118 -138
-118 -83 0 20 48 188 97 337 18 54 19 55 62 60 59 7 68 30 12 30 -49 0 -49 2
-17 97 13 39 22 74 18 77 -3 3 -20 6 -38 6 -32 0 -32 -1 -60 -90z"/>
<path d="M15883 13353 c-39 -110 -58 -147 -148 -288 -28 -44 -54 -86 -59 -92
-5 -9 -1 -13 11 -13 12 0 35 27 67 80 27 44 51 78 53 76 3 -3 -13 -60 -35
-128 -37 -115 -127 -408 -139 -453 -11 -44 -33 -65 -67 -65 -21 0 -36 -6 -40
-15 -5 -13 13 -15 124 -15 109 0 130 2 130 15 0 11 -11 15 -41 15 l-42 0 6 38
c4 20 21 83 38 140 32 101 33 102 51 82 90 -97 291 73 329 277 16 83 4 140
-36 180 -47 47 -91 43 -159 -17 -20 -18 -36 -30 -36 -27 0 3 13 41 29 84 16
43 32 93 36 111 6 31 6 32 -30 32 -25 0 -37 -5 -42 -17z m155 -185 c45 -45
-32 -323 -109 -395 -67 -61 -129 -46 -129 32 0 56 69 254 105 301 46 60 107
88 133 62z"/>
<path d="M9602 13200 c-29 -18 -92 -101 -92 -122 0 -23 31 -2 54 36 25 42 49
61 66 51 4 -3 -19 -82 -51 -176 -66 -191 -71 -228 -34 -264 27 -28 63 -32 104
-11 28 15 94 83 122 126 16 24 16 23 6 -28 -14 -68 3 -105 50 -110 38 -4 94
41 124 100 19 38 19 38 0 38 -11 0 -22 -9 -26 -19 -10 -32 -45 -71 -65 -71
-37 0 -36 3 51 286 27 89 49 164 49 168 0 4 -16 6 -36 4 l-35 -3 -48 -125
c-67 -178 -130 -287 -184 -320 -32 -20 -67 -13 -67 14 0 7 27 94 60 192 33 98
60 187 60 197 0 22 -35 57 -57 57 -10 0 -33 -9 -51 -20z"/>
<path d="M11525 13201 c-22 -10 -61 -40 -86 -67 -87 -94 -129 -191 -129 -302
0 -59 2 -66 34 -98 39 -39 77 -44 132 -18 38 18 95 77 119 123 14 29 14 31 -2
30 -10 0 -31 -21 -48 -47 -36 -55 -85 -87 -121 -78 -36 9 -49 45 -38 107 9 52
9 53 76 86 157 80 229 193 163 258 -29 30 -47 31 -100 6z m63 -50 c6 -39 -6
-67 -48 -109 -40 -42 -118 -97 -126 -89 -7 7 32 102 60 146 47 75 107 102 114
52z"/>
<path d="M12801 13209 c-111 -44 -231 -240 -231 -376 0 -161 175 -176 270 -22
34 56 35 59 16 59 -8 0 -23 -15 -34 -32 -75 -121 -178 -129 -174 -13 2 57 14
83 45 96 53 21 165 98 187 130 71 99 21 198 -79 158z m52 -50 c5 -9 7 -29 3
-45 -8 -32 -93 -118 -144 -147 -31 -18 -32 -18 -32 1 0 30 58 139 95 178 35
37 60 41 78 13z"/>
<path d="M13137 13206 c-52 -19 -85 -52 -97 -96 -12 -44 -4 -71 49 -173 24
-46 41 -92 41 -111 0 -44 -31 -82 -75 -90 -49 -10 -73 6 -77 52 -3 32 -7 37
-27 37 -58 0 -47 -80 14 -109 74 -35 180 -4 216 64 32 59 25 107 -31 217 -27
54 -50 108 -50 121 0 36 35 64 78 60 31 -2 39 -8 51 -35 16 -36 32 -41 51 -18
25 30 -13 76 -75 88 -17 4 -47 0 -68 -7z"/>
<path d="M13530 13203 c-19 -10 -58 -40 -85 -68 -139 -139 -176 -379 -66 -425
66 -27 147 19 201 114 34 58 36 66 16 66 -8 0 -24 -19 -35 -43 -42 -88 -111
-127 -151 -87 -20 20 -22 29 -16 85 15 150 117 344 175 333 9 -2 18 -16 21
-32 6 -37 32 -55 54 -37 25 21 20 66 -10 90 -32 25 -58 26 -104 4z"/>
<path d="M13935 13206 c-48 -21 -106 -73 -152 -134 -106 -142 -117 -323 -22
-363 42 -17 84 -2 143 52 39 35 53 44 49 29 -8 -31 16 -79 43 -86 32 -8 81 22
121 75 34 43 43 74 21 65 -7 -2 -24 -20 -38 -38 -48 -65 -87 -71 -76 -10 4 18
31 113 61 211 30 97 55 183 55 190 0 19 -69 17 -76 -2 -5 -13 -10 -12 -31 5
-30 23 -56 25 -98 6z m91 -51 c14 -21 14 -32 4 -77 -35 -148 -100 -269 -169
-315 -40 -27 -54 -28 -75 -7 -35 34 -11 149 56 274 45 86 61 105 103 131 40
25 61 24 81 -6z"/>
<path d="M15523 13205 c-18 -7 -52 -32 -77 -55 -100 -92 -154 -222 -147 -353
2 -42 60 -97 101 -97 64 0 144 61 185 139 14 29 14 31 -2 31 -10 -1 -31 -21
-47 -46 -30 -47 -77 -84 -108 -84 -27 0 -58 36 -58 68 0 15 5 43 10 63 9 31
19 41 74 68 71 35 150 100 171 142 24 46 19 94 -11 118 -31 24 -47 25 -91 6z
m55 -54 c6 -39 -6 -67 -48 -109 -40 -42 -118 -97 -126 -89 -7 7 32 102 60 146
47 75 107 102 114 52z"/>
<path d="M16375 13202 c-45 -21 -114 -92 -141 -143 -46 -89 -57 -215 -25 -286
62 -136 240 -71 316 116 83 203 -3 382 -150 313z m99 -44 c21 -30 20 -73 -5
-182 -23 -99 -57 -175 -94 -212 -31 -31 -89 -33 -105 -5 -36 68 31 323 104
396 32 32 79 34 100 3z"/>
<path d="M16702 13195 c-32 -27 -91 -130 -80 -140 11 -11 27 4 47 43 34 66 81
91 81 43 0 -17 -90 -332 -109 -384 -17 -43 -14 -48 25 -45 l37 3 47 130 c58
159 111 275 134 294 14 12 22 12 37 3 28 -18 47 -15 59 9 14 26 -11 69 -40 69
-29 0 -76 -47 -109 -109 l-29 -54 1 61 c2 95 -40 128 -101 77z"/>
<path d="M17350 13198 c-42 -28 -105 -114 -90 -123 5 -3 31 17 56 44 45 49 84
66 84 37 0 -8 -27 -87 -60 -175 -69 -184 -74 -228 -34 -260 15 -12 38 -21 51
-21 27 0 108 70 136 119 18 30 18 31 -2 31 -12 0 -21 -4 -21 -8 0 -16 -77 -92
-93 -92 -33 0 -27 40 33 201 65 176 71 218 40 249 -26 26 -59 25 -100 -2z"/>
<path d="M17595 13194 c-14 -15 -25 -30 -25 -35 0 -4 -3 -14 -6 -23 -8 -22 15
-20 32 2 12 16 14 16 44 -1 17 -11 40 -17 51 -14 19 5 19 4 5 -16 -50 -71
-109 -179 -122 -226 -21 -72 -13 -118 27 -155 28 -24 38 -28 76 -23 91 10 169
94 219 237 34 100 45 238 19 263 -20 20 -34 18 -49 -6 -7 -12 -6 -34 6 -79 13
-50 15 -74 7 -117 -21 -108 -113 -248 -167 -252 -55 -4 -72 17 -72 88 0 61 28
141 95 273 34 66 44 95 37 102 -13 13 -42 -6 -42 -28 0 -27 -23 -25 -50 5 -35
38 -54 39 -85 5z"/>
<path d="M18200 13203 c-54 -26 -152 -131 -190 -203 -29 -55 -35 -78 -38 -147
l-4 -83 35 -35 c54 -54 96 -47 175 28 41 40 42 41 42 15 0 -35 36 -78 66 -78
28 0 99 61 127 109 18 30 18 31 0 31 -10 0 -27 -14 -37 -30 -31 -54 -86 -75
-86 -34 0 8 15 63 34 122 18 59 46 146 60 195 15 48 29 94 32 102 5 12 -3 15
-35 15 -30 0 -41 -4 -41 -15 0 -20 -7 -19 -37 5 -31 24 -57 25 -103 3z m94
-39 c21 -20 20 -35 -3 -126 -48 -188 -176 -341 -236 -282 -55 55 59 337 163
406 33 22 56 23 76 2z"/>
<path d="M5834 13150 c-75 -8 -227 -56 -309 -98 -111 -56 -330 -267 -398 -383
-92 -157 -130 -305 -131 -504 -1 -302 83 -507 298 -721 96 -95 175 -154 266
-198 101 -48 97 -34 55 -193 -66 -250 -126 -476 -165 -618 -21 -77 -57 -210
-80 -295 -267 -996 -310 -1122 -426 -1235 -85 -84 -168 -130 -279 -156 -109
-25 -125 -33 -107 -51 9 -9 65 -14 202 -17 l188 -3 7 -47 c28 -200 103 -389
185 -465 82 -77 162 -70 184 17 15 58 -3 83 -88 123 -41 18 -88 46 -106 60
-53 45 -120 202 -120 281 l0 33 199 0 c213 0 261 5 261 26 0 17 -25 30 -75 39
-89 17 -169 77 -209 157 -21 41 -26 67 -26 122 l0 71 73 70 c245 235 651 270
964 84 72 -43 219 -182 283 -268 28 -36 62 -97 77 -135 25 -64 26 -69 10 -81
-9 -7 -37 -15 -62 -18 -48 -7 -105 -32 -105 -46 0 -14 39 -21 116 -21 56 0 77
-4 95 -19 24 -19 24 -22 24 -198 0 -208 -15 -291 -75 -420 -47 -100 -84 -155
-162 -239 -163 -174 -396 -295 -648 -338 -254 -43 -423 -45 -615 -7 -211 41
-377 126 -518 265 -176 175 -255 364 -451 1079 -25 92 -67 242 -92 335 -89
324 -137 478 -168 537 -66 127 -209 245 -355 293 -45 16 -82 32 -83 37 0 6 38
22 84 36 197 62 356 158 493 301 98 100 156 183 210 293 78 161 105 291 105
498 0 144 -15 221 -65 340 -54 127 -124 228 -234 338 -275 274 -674 428 -1296
501 -172 20 -566 17 -700 -6 -164 -27 -279 -59 -385 -106 l-95 -43 -115 3
c-235 6 -225 7 -225 -14 0 -12 9 -22 25 -26 104 -29 140 -42 146 -51 3 -6 -32
-50 -78 -97 -184 -190 -257 -336 -279 -558 -13 -125 -1 -309 27 -419 20 -77
89 -224 144 -306 90 -133 256 -271 399 -331 l54 -22 -6 -595 c-4 -351 -11
-622 -17 -660 -27 -159 -152 -288 -320 -331 -69 -17 -100 -31 -100 -45 0 -20
405 -28 1118 -23 472 3 625 7 635 17 16 16 -3 28 -73 41 -88 18 -112 28 -170
72 -109 83 -156 161 -181 303 -13 72 -16 841 -3 854 3 3 95 8 203 9 l198 4 22
-84 c12 -45 40 -149 62 -230 21 -82 57 -217 80 -300 125 -469 188 -671 255
-816 258 -557 729 -934 1371 -1096 206 -53 316 -66 563 -66 337 0 460 16 661
86 347 121 553 321 665 648 34 99 47 218 42 397 l-4 157 1603 4 c1141 2 1605
6 1613 14 17 17 -8 32 -81 47 -90 19 -144 50 -220 126 -49 50 -73 83 -95 136
l-29 70 0 1335 c0 1061 3 1347 13 1392 14 61 72 154 125 201 47 41 122 78 206
101 76 22 96 38 64 50 -10 4 -151 14 -313 22 -437 21 -632 51 -1040 159 -322
85 -605 183 -935 325 -66 29 -163 70 -215 92 -52 22 -138 58 -190 80 -382 161
-738 278 -935 307 -103 15 -328 21 -421 11z m449 -70 c129 -22 343 -81 502
-139 148 -53 266 -102 605 -251 318 -140 652 -277 780 -321 160 -56 255 -104
307 -156 62 -63 80 -112 93 -254 11 -127 12 -2681 1 -2829 -10 -127 -32 -178
-116 -261 -71 -72 -138 -108 -229 -123 -153 -27 -313 26 -441 145 -125 117
-125 117 -351 929 -89 319 -113 406 -154 560 -23 85 -59 218 -80 295 -21 77
-57 210 -80 295 -23 85 -62 227 -86 315 -24 88 -61 227 -83 308 l-41 149 30
76 c40 106 57 173 70 271 14 102 8 140 -27 175 -33 33 -58 33 -107 0 l-39 -26
6 -57 c4 -31 11 -89 17 -130 18 -134 -2 -97 -60 108 -32 111 -60 204 -62 207
-11 10 -419 -88 -698 -168 -133 -38 -113 -9 -184 -270 -167 -612 -181 -658
-202 -658 -51 0 -248 133 -346 233 -181 187 -261 390 -261 662 0 164 20 260
78 383 103 215 264 381 460 473 187 88 419 107 698 59z m-3628 -839 c381 -105
725 -451 839 -843 51 -177 54 -458 6 -643 -53 -204 -190 -412 -355 -535 -141
-107 -374 -190 -533 -190 -58 0 -62 14 -62 223 1 198 5 215 76 307 127 166
211 448 165 557 -16 40 -56 56 -106 42 -85 -24 -95 -76 -37 -195 32 -68 37
-88 36 -146 0 -60 -5 -78 -45 -155 -64 -128 -74 -123 -82 34 -4 70 -7 304 -7
520 l0 391 -54 64 c-140 164 -391 316 -667 405 -82 26 -149 51 -149 55 0 24
196 88 365 119 148 27 495 21 610 -10z m-1113 -251 c73 -83 106 -147 119 -230
13 -84 19 -1312 7 -1342 -7 -17 -10 -16 -52 2 -58 24 -187 111 -244 164 -236
218 -340 687 -222 1005 26 70 83 173 123 226 39 50 208 225 218 225 4 0 27
-22 51 -50z m4439 -70 c131 -475 183 -680 173 -689 -9 -9 -238 -14 -319 -6
-40 3 -80 12 -89 18 -14 11 -6 48 65 327 98 389 124 478 134 468 2 -2 18 -55
36 -118z m-136 -751 c46 -6 136 -8 211 -4 l130 7 32 -123 c30 -117 52 -200
151 -569 23 -85 59 -220 80 -300 26 -94 36 -149 30 -155 -12 -12 -893 -20
-1006 -10 -88 8 -86 0 -39 168 19 67 55 199 80 292 24 94 66 249 91 345 81
306 110 378 143 365 9 -3 53 -11 97 -16z m699 -1339 c19 -69 55 -201 81 -295
104 -378 125 -525 85 -613 -23 -51 -58 -102 -69 -102 -5 0 -23 28 -41 63 -110
208 -268 357 -482 456 -136 62 -201 76 -368 75 -216 -1 -311 -31 -490 -153
-41 -27 -76 -49 -77 -47 -5 5 142 571 174 671 8 28 20 55 25 60 9 10 1106 25
1120 15 4 -3 23 -62 42 -130z"/>
<path d="M11392 12190 c-293 -31 -605 -165 -853 -366 -146 -119 -311 -309
-419 -483 -179 -289 -265 -670 -239 -1061 29 -427 181 -777 468 -1073 167
-172 314 -279 526 -382 159 -78 299 -126 470 -161 120 -25 149 -27 370 -28
406 0 620 42 880 176 152 78 370 245 380 291 9 43 75 613 75 650 0 53 -26 50
-40 -5 -91 -362 -163 -494 -383 -705 -234 -224 -476 -339 -743 -350 -271 -12
-472 66 -665 257 -272 268 -426 696 -470 1300 -15 202 -6 609 16 770 61 450
235 795 488 969 153 105 328 153 552 153 278 0 479 -72 701 -253 141 -115 227
-254 270 -436 27 -114 37 -142 47 -125 4 5 10 119 13 253 8 291 -3 622 -20
616 -6 -2 -22 -24 -36 -48 -44 -79 -68 -106 -123 -134 l-54 -28 -169 55 c-195
65 -361 112 -466 134 -87 18 -451 27 -576 14z"/>
<path d="M18390 12159 c-12 -45 -64 -108 -117 -140 -52 -32 -112 -22 -304 54
-292 116 -272 112 -594 112 l-280 0 -114 -43 c-174 -64 -258 -118 -387 -246
-222 -222 -293 -407 -282 -733 8 -210 48 -340 153 -488 98 -138 258 -239 876
-550 403 -203 511 -262 599 -330 101 -78 198 -235 221 -360 13 -71 5 -224 -17
-310 -51 -199 -263 -366 -534 -421 -126 -25 -317 -16 -472 24 -231 60 -411
162 -573 326 -153 154 -228 295 -271 505 -13 63 -27 118 -32 123 -16 16 -22
-122 -21 -522 1 -415 6 -521 26 -527 6 -2 14 13 18 39 14 81 68 154 144 192
94 47 124 42 326 -54 268 -127 387 -154 690 -155 242 0 303 11 475 88 343 155
596 451 677 793 24 103 23 335 -1 444 -34 150 -103 279 -230 423 -119 136
-213 194 -794 490 -240 123 -470 243 -510 268 -102 61 -187 140 -243 227 -58
88 -73 152 -67 278 4 79 10 99 39 155 49 92 154 194 255 247 137 70 313 101
469 82 182 -22 359 -85 486 -171 89 -60 228 -200 283 -286 60 -94 82 -146 100
-240 8 -43 18 -86 21 -95 12 -30 32 -20 39 20 8 48 8 770 0 800 -11 38 -42 28
-54 -19z"/>
<path d="M13323 12161 c-56 -3 -105 -9 -108 -13 -18 -18 7 -35 58 -41 117 -12
264 -121 322 -241 28 -57 29 -64 36 -275 4 -119 8 -735 8 -1369 l1 -1153 -52
-94 c-28 -52 -63 -105 -77 -119 -44 -41 -139 -94 -194 -106 -74 -16 -108 -31
-104 -44 6 -19 269 -23 1469 -25 l1148 -1 5 23 c8 33 40 267 66 480 20 162 21
189 9 197 -23 14 -38 -7 -50 -68 -48 -237 -262 -472 -495 -545 -88 -28 -222
-37 -537 -37 l-308 0 0 1049 c0 578 4 1052 8 1055 16 10 188 -32 253 -62 142
-64 264 -183 326 -319 15 -32 38 -105 52 -162 14 -58 31 -106 37 -108 7 -2 14
18 19 53 9 73 9 967 0 1028 -12 77 -26 59 -64 -80 -6 -22 -33 -72 -60 -111
-54 -77 -122 -129 -206 -158 -53 -18 -320 -43 -348 -32 -15 6 -16 54 -11 609
3 332 8 609 10 616 7 22 565 11 654 -12 227 -58 361 -156 480 -349 28 -45 57
-107 66 -137 34 -123 39 -135 57 -138 16 -3 17 3 12 65 -18 199 -66 568 -81
616 -5 16 -68 17 -1152 15 -631 -1 -1193 -4 -1249 -7z"/>
<path d="M18348 8483 c-62 -16 -112 -273 -77 -398 7 -25 8 -40 1 -43 -5 -1
-70 -40 -143 -86 -74 -46 -135 -83 -136 -82 -1 1 9 24 22 51 14 28 32 85 42
127 20 95 9 154 -33 164 -69 17 -155 -154 -172 -341 l-7 -80 -69 -33 c-38 -18
-121 -51 -185 -73 -103 -36 -124 -40 -184 -36 -76 5 -111 27 -122 79 -9 40 8
56 63 60 57 4 64 22 27 66 -70 83 -195 21 -195 -98 0 -53 24 -97 72 -134 82
-62 197 -75 335 -37 l83 23 47 -30 c112 -72 214 -102 344 -102 59 0 81 4 85
14 8 22 -32 92 -68 120 -42 32 -137 76 -164 76 -42 0 -30 13 65 62 53 28 148
81 211 118 235 138 338 180 442 180 73 0 114 -17 155 -63 86 -98 61 -201 -59
-252 -40 -16 -53 -10 -68 29 -14 38 -6 57 31 78 27 16 30 22 27 59 -2 32 -10
47 -30 62 -24 18 -32 19 -68 8 -121 -36 -177 -182 -106 -275 37 -49 88 -70
171 -70 132 -2 218 57 251 170 41 141 -33 294 -164 338 -65 22 -191 20 -280
-4 -39 -11 -74 -20 -76 -20 -3 0 4 21 16 47 18 40 20 61 16 147 -5 106 -21
156 -57 176 -11 5 -21 9 -23 9 -2 -1 -11 -3 -20 -6z"/>
<path d="M8105 8360 c-26 -50 -46 -52 -279 -34 -270 21 -525 24 -586 5 -25 -7
-60 -29 -82 -51 -32 -31 -38 -45 -38 -78 0 -64 57 -94 95 -52 16 17 17 25 7
57 -24 79 22 98 232 95 82 -1 151 -3 153 -5 2 -3 -19 -81 -48 -173 -28 -93
-62 -203 -74 -244 -147 -488 -147 -488 -244 -498 -30 -3 -52 -10 -55 -18 -5
-12 29 -14 211 -12 148 2 218 7 220 14 2 7 -15 13 -42 16 -53 6 -85 31 -85 65
0 14 16 75 35 136 19 62 75 244 124 406 50 161 92 294 93 295 2 1 59 -1 128
-6 196 -13 283 4 296 57 7 27 -10 55 -32 55 -7 0 -21 -14 -29 -30z"/>
<path d="M9555 8354 c-5 -2 -41 -7 -79 -11 -41 -5 -71 -13 -74 -20 -2 -8 6
-13 20 -13 13 0 32 -6 42 -13 18 -13 16 -22 -35 -193 -29 -98 -54 -181 -55
-183 -2 -2 -17 8 -34 23 -63 52 -154 25 -254 -77 -101 -103 -166 -251 -166
-379 0 -108 38 -158 120 -158 51 0 74 12 143 79 l47 45 0 -33 c0 -34 15 -71
34 -83 6 -4 29 -8 51 -8 35 0 45 7 102 64 35 36 63 70 63 75 0 24 -27 8 -68
-39 -29 -33 -51 -50 -66 -50 -52 0 -46 33 84 445 48 152 160 522 160 529 0 7
-19 7 -35 0z m-222 -446 c9 -11 17 -26 17 -33 0 -63 -79 -291 -128 -370 -60
-98 -147 -159 -191 -135 -101 54 74 502 219 559 32 12 60 5 83 -21z"/>
<path d="M9796 8338 c-33 -46 -6 -98 49 -98 43 0 69 34 59 74 -12 48 -81 63
-108 24z"/>
<path d="M10650 8340 c-39 -39 -12 -100 44 -100 39 0 66 26 66 62 0 53 -71 77
-110 38z"/>
<path d="M14967 8342 c-37 -41 -11 -102 43 -102 36 0 60 23 60 59 0 54 -68 82
-103 43z"/>
<path d="M15420 8350 c-14 -4 -50 -8 -81 -9 -40 -1 -59 -5 -62 -15 -4 -11 4
-16 30 -18 20 -2 41 -10 46 -19 12 -19 1 -61 -138 -504 -98 -315 -110 -384
-75 -427 17 -22 30 -28 61 -28 71 0 126 46 178 148 20 39 20 42 4 42 -11 -1
-27 -19 -43 -51 -30 -63 -73 -101 -109 -97 -42 5 -39 54 15 230 26 84 57 187
69 228 28 93 117 384 143 468 22 68 20 71 -38 52z"/>
<path d="M15697 8342 c-40 -44 -6 -106 54 -100 57 5 74 78 25 110 -20 14 -63
8 -79 -10z"/>
<path d="M12587 8336 c-4 -10 6 -16 38 -20 23 -4 51 -16 60 -26 17 -19 17 -23
-2 -98 -52 -196 -207 -721 -224 -754 -19 -37 -50 -53 -118 -60 -14 -2 -26 -9
-29 -15 -3 -10 43 -13 207 -13 181 0 211 2 211 15 0 10 -10 15 -31 15 -32 0
-69 15 -81 34 -15 22 -8 65 44 249 l52 187 85 0 c100 0 129 -12 154 -60 14
-27 16 -48 11 -92 -4 -38 -2 -58 4 -58 6 0 14 5 17 11 7 11 115 379 115 392 0
20 -29 3 -41 -24 -37 -91 -106 -131 -236 -137 -57 -3 -93 -1 -93 5 0 8 90 330
116 416 5 15 20 17 137 17 189 -1 227 -21 268 -144 10 -28 25 -52 33 -54 14
-3 16 10 16 90 0 51 -3 103 -6 116 l-6 22 -348 0 c-289 0 -349 -2 -353 -14z"/>
<path d="M11212 8291 c-28 -30 -126 -182 -138 -213 -12 -33 10 -18 116 75 109
97 129 129 94 154 -27 20 -43 16 -72 -16z"/>
<path d="M7952 7935 c-47 -42 -111 -155 -89 -155 9 0 28 24 45 53 35 62 64 90
89 85 38 -7 26 -68 -91 -451 -20 -65 -36 -121 -36 -125 0 -4 20 -6 45 -4 30 3
45 9 45 18 0 51 174 469 218 524 l20 24 35 -19 c19 -10 42 -15 50 -12 26 10
32 55 12 77 -48 53 -118 -2 -189 -149 -28 -55 -51 -99 -52 -98 -1 1 4 29 12
62 40 173 -17 258 -114 170z"/>
<path d="M8572 7950 c-23 -11 -75 -52 -115 -93 -206 -209 -234 -526 -46 -527
35 0 55 7 85 29 43 32 95 85 113 116 9 16 10 10 5 -31 -6 -50 5 -90 30 -106
21 -14 69 -8 102 13 31 19 114 121 114 141 0 20 -28 3 -55 -34 -39 -53 -76
-81 -98 -72 -23 9 -22 45 7 134 14 41 48 152 76 245 28 94 53 176 55 183 3 8
-9 12 -40 12 -41 0 -44 -2 -50 -32 l-7 -32 -14 27 c-27 51 -87 61 -162 27z
m123 -35 c30 -29 31 -57 6 -158 -57 -221 -172 -387 -269 -387 -74 0 -82 105
-19 267 59 151 129 250 202 284 51 24 51 24 80 -6z"/>
<path d="M9679 7950 c-43 -23 -119 -115 -119 -144 0 -17 28 -2 43 23 22 37 95
103 109 99 36 -12 32 -37 -45 -245 -88 -237 -94 -261 -77 -303 30 -73 123 -68
196 12 39 41 74 93 74 107 0 25 -27 8 -53 -34 -37 -58 -74 -87 -106 -83 -41 5
-38 47 15 188 92 247 106 293 100 330 -10 66 -67 87 -137 50z"/>
<path d="M10195 7952 c-140 -68 -269 -284 -269 -452 0 -110 48 -170 134 -170
37 0 58 7 96 33 49 33 104 103 122 156 15 43 -11 43 -28 1 -65 -156 -220 -204
-237 -73 -13 106 93 392 172 461 53 47 95 39 95 -18 0 -32 17 -50 46 -50 37 0
47 62 16 100 -25 31 -95 37 -147 12z"/>
<path d="M10545 7958 c-42 -23 -135 -128 -135 -152 0 -18 32 -2 44 22 41 78
136 126 136 68 0 -14 -32 -109 -71 -213 -82 -217 -94 -282 -59 -325 18 -23 29
-28 66 -28 40 0 51 5 97 49 58 55 107 131 85 131 -7 0 -32 -25 -56 -55 -48
-63 -84 -85 -110 -68 -23 15 -19 65 12 144 122 313 136 376 93 417 -25 24 -70
28 -102 10z"/>
<path d="M11005 7946 c-92 -42 -173 -159 -210 -301 -30 -119 -11 -230 50 -284
31 -27 43 -31 91 -31 123 0 232 107 285 282 30 98 25 239 -11 291 -47 69 -118
84 -205 43z m134 -25 c28 -28 35 -79 21 -163 -16 -94 -65 -251 -96 -304 -53
-92 -128 -121 -181 -68 -25 25 -26 29 -20 107 11 159 86 360 155 417 43 36 92
40 121 11z"/>
<path d="M11448 7952 c-15 -10 -49 -45 -74 -78 -38 -49 -43 -60 -29 -63 10 -1
22 4 27 14 37 65 101 105 114 71 3 -7 -13 -69 -35 -137 -21 -68 -54 -171 -71
-229 -18 -58 -39 -124 -46 -147 l-13 -43 44 0 43 0 43 128 c72 217 173 394
252 443 42 25 63 24 82 -5 15 -23 13 -32 -29 -158 -24 -73 -58 -171 -75 -218
-52 -145 -37 -200 54 -200 40 0 52 5 93 44 26 24 55 58 65 75 18 30 18 31 0
31 -10 0 -26 -13 -36 -29 -23 -38 -74 -81 -97 -81 -10 0 -21 8 -24 18 -4 10
26 112 65 228 82 244 87 284 40 326 -57 51 -128 32 -204 -52 -26 -29 -63 -80
-82 -114 -40 -70 -43 -66 -15 22 11 35 20 81 20 101 0 66 -55 91 -112 53z"/>
<path d="M13405 7947 c-62 -30 -159 -125 -205 -202 -122 -207 -100 -415 45
-415 51 0 120 43 167 103 17 23 35 46 38 50 4 4 5 -17 2 -48 -6 -75 13 -105
69 -105 35 0 47 6 92 53 63 64 96 117 73 117 -9 0 -26 -17 -40 -37 -42 -67
-92 -97 -115 -69 -14 16 -2 62 98 388 28 92 51 170 51 173 0 3 -20 5 -44 5
-41 0 -44 -2 -50 -32 l-7 -33 -15 27 c-29 54 -79 62 -159 25z m135 -33 c49
-47 -50 -353 -150 -467 -69 -78 -145 -102 -172 -54 -45 82 50 358 166 478 65
66 116 81 156 43z"/>
<path d="M14854 7956 c-51 -22 -155 -156 -121 -156 7 0 27 20 45 45 31 44 88
88 106 82 31 -10 25 -39 -50 -237 -85 -227 -98 -297 -60 -339 29 -32 93 -29
144 9 37 26 112 122 112 142 0 21 -31 4 -50 -26 -30 -50 -88 -98 -113 -94 -48
7 -31 79 88 384 34 89 39 126 21 162 -23 44 -62 54 -122 28z"/>
<path d="M15582 7953 c-35 -17 -85 -70 -115 -122 -30 -51 6 -39 44 14 42 59
93 92 114 75 8 -7 15 -18 15 -25 0 -6 -34 -102 -76 -211 -60 -157 -76 -211
-77 -257 -2 -51 1 -61 22 -78 45 -36 119 -20 172 38 30 32 79 104 79 115 0 19
-27 6 -42 -20 -33 -56 -88 -103 -117 -100 -45 5 -39 46 40 259 81 220 90 277
50 310 -28 23 -65 24 -109 2z"/>
<path d="M16103 7944 c-61 -30 -169 -140 -213 -216 -112 -194 -84 -398 55
-398 62 0 140 56 196 140 15 24 16 22 11 -33 -6 -77 13 -107 69 -107 33 0 47
7 87 44 53 50 105 130 79 124 -8 -1 -30 -23 -49 -48 -18 -24 -46 -51 -61 -60
-24 -13 -28 -13 -43 2 -18 17 -8 57 76 323 35 109 70 230 70 239 0 4 -19 6
-42 4 -36 -2 -44 -7 -46 -25 -2 -13 -5 -23 -7 -23 -2 0 -17 14 -33 30 -38 38
-80 39 -149 4z m134 -26 c25 -20 24 -67 -2 -165 -65 -241 -189 -404 -290 -379
-33 8 -48 65 -36 132 42 216 206 453 296 427 11 -3 25 -10 32 -15z"/>
<path d="M16552 7935 c-40 -36 -107 -147 -95 -159 14 -14 24 -4 52 52 33 66
62 95 88 90 30 -6 21 -88 -27 -244 -36 -119 -77 -252 -96 -316 -5 -15 1 -18
38 -18 l44 0 28 88 c74 229 180 456 219 468 10 3 26 -1 36 -10 32 -30 71 -13
71 30 0 29 -25 54 -55 54 -43 0 -93 -57 -146 -164 -28 -56 -48 -90 -44 -76 3
14 9 62 12 107 5 67 3 87 -11 108 -24 37 -67 34 -114 -10z"/>
<path d="M13865 7942 c-36 -22 -89 -81 -110 -122 -23 -45 7 -41 35 5 25 41 76
85 97 85 13 0 15 -8 10 -44 -6 -40 -73 -273 -132 -453 l-24 -73 44 0 43 0 42
128 c59 178 117 294 184 368 30 34 70 67 87 74 29 13 33 12 50 -9 25 -31 25
-32 -101 -438 l-38 -123 44 0 43 0 40 125 c72 224 153 367 243 427 46 31 84
33 102 6 14 -23 1 -76 -74 -294 -46 -131 -61 -188 -56 -208 25 -100 148 -84
226 28 34 50 36 56 16 56 -8 0 -24 -16 -37 -36 -21 -35 -72 -74 -96 -74 -7 0
-17 8 -22 19 -8 14 6 67 60 227 59 173 70 216 66 253 -9 80 -78 113 -160 77
-42 -18 -117 -97 -163 -171 -20 -33 -34 -52 -31 -42 4 9 11 46 17 81 20 110
-17 158 -107 141 -45 -8 -144 -104 -192 -185 -18 -30 -30 -46 -27 -35 23 85
35 159 30 180 -11 46 -59 57 -109 27z"/>
<path d="M6773 6910 c-49 -20 -53 -81 -13 -176 11 -26 19 -48 18 -50 -2 -1
-46 7 -98 18 -128 28 -395 31 -485 6 -52 -15 -61 -15 -68 -2 -22 40 -152 174
-177 182 -41 15 -67 -7 -76 -63 -9 -63 3 -128 32 -170 24 -36 24 -55 1 -55 -7
0 -82 -36 -168 -79 -212 -109 -341 -141 -422 -107 -52 22 -70 50 -75 116 -4
53 -2 61 21 84 18 18 37 26 60 26 42 0 65 -21 42 -40 -35 -29 -9 -100 44 -118
39 -14 103 17 131 63 26 43 27 119 0 162 -54 90 -168 113 -288 59 -164 -75
-219 -245 -117 -363 38 -45 131 -98 190 -108 57 -11 58 -13 31 -46 -38 -45
-51 -104 -31 -135 35 -53 95 -50 175 9 54 40 93 94 125 173 14 35 32 61 44 65
11 4 38 19 60 33 22 14 42 26 45 26 2 0 -5 -17 -16 -39 -10 -21 -26 -74 -35
-117 -29 -145 10 -291 107 -397 145 -158 394 -180 595 -52 104 66 149 148 143
265 -2 63 -8 83 -33 123 -51 80 -141 127 -246 127 -114 0 -178 -51 -163 -129
10 -47 33 -61 109 -64 57 -2 70 -7 86 -26 35 -43 18 -103 -45 -158 -66 -59
-138 -65 -236 -22 -99 44 -144 116 -145 229 0 129 66 235 198 313 87 52 178
72 327 71 143 -1 259 -20 428 -69 123 -36 402 -136 402 -145 0 -3 -24 -11 -52
-18 -129 -30 -228 -105 -228 -173 0 -34 46 -76 95 -85 96 -18 292 49 394 136
l47 38 136 -38 c157 -44 269 -62 372 -59 70 2 71 2 116 -37 130 -116 300 -174
498 -174 53 1 129 7 167 14 39 8 71 13 72 12 0 0 -17 -30 -38 -65 -32 -54 -39
-74 -39 -118 0 -44 5 -58 25 -78 39 -40 86 -34 140 16 66 61 107 150 109 236
l1 69 155 76 c240 118 414 243 517 371 73 91 98 136 84 150 -16 16 -65 -15
-115 -71 -22 -24 -68 -66 -104 -93 -51 -38 -73 -49 -102 -49 -53 0 -169 32
-285 78 -163 64 -278 76 -372 37 -42 -18 -43 -45 -6 -121 31 -63 81 -113 150
-147 55 -28 89 -36 157 -39 43 -1 47 -3 30 -15 -28 -20 -162 -70 -271 -100
-85 -23 -118 -27 -243 -27 -135 0 -150 1 -220 28 -69 25 -170 83 -170 97 0 3
17 13 38 23 163 78 292 234 292 354 0 68 -22 114 -81 174 -158 158 -429 151
-532 -14 -59 -95 -70 -202 -36 -337 11 -45 19 -84 17 -86 -8 -9 -160 17 -242
41 -49 14 -148 51 -220 81 -72 31 -198 84 -280 118 l-150 61 -3 54 c-6 98 -73
198 -165 246 -36 19 -107 26 -135 14z m133 -152 c29 -30 62 -103 52 -114 -15
-15 -118 121 -118 156 0 16 30 -3 66 -42z m-896 -68 c12 -16 19 -30 16 -30 -8
0 -46 43 -46 52 0 15 8 8 30 -22z m2304 -24 c104 -43 109 -175 9 -254 -45 -35
-138 -82 -165 -82 -26 0 -53 98 -53 192 0 83 17 120 66 145 32 17 102 16 143
-1z m854 -304 l125 -57 -74 -3 c-89 -4 -188 25 -243 70 -97 80 6 75 192 -10z
m-1748 -116 c0 -9 -74 -47 -140 -70 -92 -34 -180 -45 -180 -24 0 29 30 41 168
68 163 33 152 31 152 26z m1550 -379 c-38 -77 -76 -119 -86 -94 -3 8 0 26 7
39 16 32 100 130 106 124 3 -2 -9 -34 -27 -69z"/>
<path d="M12800 6908 c-111 -32 -200 -153 -200 -273 l0 -41 -142 -56 c-79 -31
-201 -82 -272 -113 -153 -66 -299 -111 -404 -124 -42 -5 -78 -8 -79 -7 -2 1 6
38 17 81 79 310 -96 524 -377 460 -214 -49 -323 -226 -241 -390 45 -88 137
-175 248 -232 27 -14 50 -29 50 -33 0 -15 -101 -72 -172 -97 -88 -31 -240 -42
-344 -24 -132 22 -394 109 -394 131 0 3 21 7 48 9 96 4 164 33 235 100 69 64
108 171 74 199 -7 7 -45 17 -83 23 -86 15 -173 -1 -314 -56 -110 -43 -228 -75
-278 -75 -41 0 -101 42 -204 143 -69 67 -102 87 -120 69 -17 -17 71 -139 164
-228 123 -118 320 -244 518 -331 l75 -32 5 -78 c7 -95 34 -157 100 -225 40
-42 52 -48 86 -48 99 0 117 113 38 237 -27 42 -31 53 -17 49 118 -35 340 -32
469 6 88 26 193 84 262 144 43 36 44 37 125 35 100 -2 215 17 377 64 l122 35
45 -41 c74 -68 256 -139 355 -139 77 0 128 38 128 96 0 30 -8 45 -42 79 -35
34 -60 47 -135 71 -51 16 -93 32 -93 35 0 9 235 96 360 134 416 126 703 107
876 -57 157 -149 147 -394 -19 -472 -111 -51 -193 -43 -264 28 -93 93 -59 179
68 175 46 -2 55 1 76 25 54 63 12 147 -81 161 -193 29 -346 -85 -346 -261 0
-149 123 -274 312 -319 162 -38 318 5 424 117 92 97 130 201 121 337 -4 76
-13 111 -52 204 -6 14 6 11 56 -17 69 -38 69 -38 94 -109 24 -66 110 -158 177
-187 48 -21 53 -21 84 -6 54 25 57 84 8 158 -13 21 -24 39 -24 41 0 3 17 7 38
9 87 12 201 91 233 162 40 87 16 180 -65 254 -55 51 -118 80 -189 88 -44 5
-60 1 -107 -23 -69 -35 -104 -93 -97 -162 11 -103 120 -170 182 -111 29 27 34
80 10 100 -39 32 48 56 91 25 49 -34 55 -116 12 -170 -69 -88 -205 -70 -464
61 -89 44 -172 84 -185 87 -21 6 -21 7 -5 29 32 45 46 88 46 147 0 72 -12 106
-38 113 -36 10 -77 -20 -152 -110 -50 -60 -80 -89 -90 -85 -8 2 -51 12 -95 20
-101 20 -300 12 -435 -16 -52 -11 -95 -19 -97 -17 -2 1 6 22 18 45 11 23 23
64 26 91 5 43 3 51 -20 74 -28 28 -57 31 -117 14z m40 -106 c0 -19 -78 -129
-104 -145 l-27 -18 7 28 c11 47 32 80 71 112 38 31 53 38 53 23z m840 -112
c-12 -16 -26 -30 -31 -30 -12 0 32 59 44 59 5 1 -1 -12 -13 -29z m-2175 -26
c53 -25 69 -66 63 -165 -6 -95 -31 -169 -57 -169 -24 0 -130 55 -161 83 -75
66 -95 144 -53 203 43 60 137 82 208 48z m-775 -254 c-34 -63 -166 -114 -282
-108 l-67 3 107 50 c112 51 178 73 225 74 25 1 27 -1 17 -19z m1669 -189 c104
-21 150 -35 164 -50 19 -18 19 -21 4 -27 -23 -8 -120 10 -187 35 -48 18 -144
70 -130 71 3 0 70 -13 149 -29z m-1613 -424 c14 -66 -28 -36 -75 52 -17 33
-31 66 -31 76 0 25 98 -94 106 -128z"/>
</g>
</svg>
